<svg xmlns="http://www.w3.org/2000/svg" xmlns:xlink="http://www.w3.org/1999/xlink" viewBox="0 0 70 70"><defs><style>.cls-1{fill:none;}.cls-2{fill:#b3b3b3;}.cls-3{fill:#a6120d;}.cls-4{fill:#dd1b16;}.cls-5{fill:#f2f2f2;}</style><symbol id="angular" data-name="angular" viewBox="0 0 65 65"><rect class="cls-1" width="65" height="65"/><g id="g48"><polygon id="polygon50" class="cls-2" points="10.63 48.01 32.45 60 54.37 47.85 58.46 13.95 32.42 5 6.54 14.11 10.63 48.01"/><polygon id="polygon52" class="cls-3" points="32.36 57.13 52.07 46.23 55.88 15.9 32.36 7.88 32.36 57.13"/><polygon id="polygon54" class="cls-4" points="32.36 57.13 32.36 7.88 9.44 16.05 12.95 46.37 32.36 57.13"/><path id="path56" class="cls-5" d="M38.83,34.1l-6.47,3H25.53l-3.21,8-6,.11,16-35.59Zm-.63-1.52L32.4,21.08l-4.76,11.3h4.72Z"/><polygon id="polygon58" class="cls-2" points="37.8 32.39 32.37 32.39 32.36 37.12 39.87 37.13 43.38 45.27 49.09 45.37 32.36 9.67 32.4 21.08 37.8 32.39"/></g></symbol></defs><title>angular</title><g id="icones"><use width="65" height="65" transform="translate(2.5 2.5)" xlink:href="#angular"/></g></svg>