<svg xmlns="http://www.w3.org/2000/svg" xmlns:xlink="http://www.w3.org/1999/xlink" viewBox="0 0 70 70"><defs><style>.cls-1{fill:none;}.cls-2{fill:#331749;}.cls-3{fill:#f2f2f2;}.cls-4{fill:#662d91;}</style><symbol id="bootstrap" data-name="bootstrap" viewBox="0 0 65 65"><rect class="cls-1" width="65" height="65"/><path class="cls-2" d="M62.5,15.54V53.06a9.46,9.46,0,0,1-9.44,9.44H15.54a9.1,9.1,0,0,1-6.67-2.77,9.09,9.09,0,0,1-2.77-6.67V15.54A9.1,9.1,0,0,1,8.86,8.86a9.1,9.1,0,0,1,6.67-2.77H53.06a9.1,9.1,0,0,1,6.67,2.77A9.11,9.11,0,0,1,62.5,15.54ZM48.65,42.1q0-7.18-6.17-8.44v-.13a7.13,7.13,0,0,0,4.66-7.05v-.88A10,10,0,0,0,46.89,24,5,5,0,0,0,46,22a15.4,15.4,0,0,0-1.64-1.76,6.68,6.68,0,0,0-2.77-1.45,15.28,15.28,0,0,0-4.15-.5h-16v33H34.23q1.7,0,2.46-.06t1.7-.06A6.29,6.29,0,0,0,39.84,51l1.07-.25L42,50.54Q48.65,48.53,48.65,42.1ZM36.56,32.16H27.12V23.09h9.44a6,6,0,0,1,3.21.76,3.09,3.09,0,0,1,1.45,1.64,7.39,7.39,0,0,1,.25,2,4.45,4.45,0,0,1-.57,2.33,5,5,0,0,1-1.13,1.38,4.21,4.21,0,0,1-1.45.69,5.39,5.39,0,0,1-1.2.25Zm6.3,9.19a6.12,6.12,0,0,1-.69,3.08A3.3,3.3,0,0,1,40.28,46a10.4,10.4,0,0,1-1.76.44,10.58,10.58,0,0,1-1.2.06H27.12V36.31h10.2a7.68,7.68,0,0,1,3.15.57,3.17,3.17,0,0,1,1.7,1.57,8.67,8.67,0,0,1,.57,1.64A6.56,6.56,0,0,1,42.86,41.35Z"/><rect class="cls-3" x="7.9" y="9.52" width="43.24" height="43.24"/><path class="cls-4" d="M58.91,11.94V49.46a9.46,9.46,0,0,1-9.44,9.44H11.94a9.1,9.1,0,0,1-6.67-2.77A9.09,9.09,0,0,1,2.5,49.46V11.94A9.1,9.1,0,0,1,5.27,5.27,9.1,9.1,0,0,1,11.94,2.5H49.46a9.1,9.1,0,0,1,6.67,2.77A9.11,9.11,0,0,1,58.91,11.94ZM45.06,38.51q0-7.18-6.17-8.44v-.13a7.13,7.13,0,0,0,4.66-7.05V22a10,10,0,0,0-.25-1.57,5,5,0,0,0-.88-2,15.4,15.4,0,0,0-1.64-1.76A6.68,6.68,0,0,0,38,15.22a15.28,15.28,0,0,0-4.15-.5h-16v33H30.64q1.7,0,2.46-.06t1.7-.06a6.29,6.29,0,0,0,1.45-.13l1.07-.25,1.07-.25Q45.06,44.93,45.06,38.51ZM33,28.56H23.53V19.5H33a6,6,0,0,1,3.21.76,3.09,3.09,0,0,1,1.45,1.64,7.39,7.39,0,0,1,.25,2,4.45,4.45,0,0,1-.57,2.33,5,5,0,0,1-1.13,1.38,4.21,4.21,0,0,1-1.45.69,5.39,5.39,0,0,1-1.2.25Zm6.3,9.19a6.12,6.12,0,0,1-.69,3.08,3.3,3.3,0,0,1-1.89,1.57,10.4,10.4,0,0,1-1.76.44,10.58,10.58,0,0,1-1.2.06H23.53V32.72h10.2a7.68,7.68,0,0,1,3.15.57,3.17,3.17,0,0,1,1.7,1.57,8.67,8.67,0,0,1,.57,1.64A6.56,6.56,0,0,1,39.27,37.75Z"/></symbol></defs><title>bootstrap</title><g id="icones"><use id="bootstrap-3" data-name="bootstrap" width="65" height="65" transform="translate(2.5 2.5)" xlink:href="#bootstrap"/></g></svg>