<svg xmlns="http://www.w3.org/2000/svg" xmlns:xlink="http://www.w3.org/1999/xlink" viewBox="0 0 70 70"><defs><style>.cls-1,.cls-2{fill:none;}.cls-2{stroke:#000;stroke-miterlimit:10;}.cls-3{fill:#1a1a1a;}.cls-4{fill:#999;}.cls-5{fill:#333;}</style><symbol id="vecteur" data-name="vecteur" viewBox="0 0 66.08 65.91"><rect class="cls-1" x="0.08" y="0.91" width="65" height="65"/><path class="cls-2" d="M27.38,39.19C3.76,39.19,3.88,61.6,3.88,61.6"/><rect x="23.51" y="35.31" width="7.75" height="7.75"/><rect y="57.73" width="7.75" height="7.75"/><polygon class="cls-3" points="54.12 0 66.08 11.97 61.92 14.06 52.36 4.5 54.12 0"/><path class="cls-4" d="M25.64,37.26l1.25,1.25L42.56,22.85a2.55,2.55,0,0,1,.62-2.77,2.66,2.66,0,0,1,3.77,0,2.72,2.72,0,0,1,0,3.82,2.48,2.48,0,0,1-2.71.68L28.61,40.23l1,1C46.73,28.79,58.85,27.12,58.85,27.12L61.61,14.8,52.05,5.24,39.73,8S38.06,20.12,25.64,37.26Z"/><path class="cls-5" d="M46.43,19.67l10-10-1-1L44.72,19.32A2.64,2.64,0,0,1,46.43,19.67Z"/><path class="cls-5" d="M58.85,27.12,61.61,14.8h0L44,32.45C53.12,27.91,58.85,27.12,58.85,27.12Z"/><path class="cls-5" d="M39.73,8S38.26,18.68,27.8,34.17L54.39,7.58,52.05,5.24Z"/><polygon points="3.01 55.33 0.41 52.73 3.01 50.12 5.61 52.73 3.01 55.33"/><polygon points="10.97 47.37 8.36 44.77 10.97 42.17 13.57 44.77 10.97 47.37"/><polygon points="18.92 39.42 16.32 36.82 18.92 34.21 21.52 36.82 18.92 39.42"/><line class="cls-2" x1="2.72" y1="53.08" x2="18.98" y2="36.82"/></symbol></defs><title>dessin-vectoriel</title><g id="icones"><use width="66.08" height="65.91" transform="translate(1.96 2.04)" xlink:href="#vecteur"/></g></svg>