<svg xmlns="http://www.w3.org/2000/svg" xmlns:xlink="http://www.w3.org/1999/xlink" viewBox="0 0 70 70"><defs><style>.cls-1,.cls-10,.cls-11,.cls-12,.cls-13,.cls-14,.cls-15,.cls-16,.cls-17,.cls-18,.cls-19,.cls-20,.cls-6,.cls-7,.cls-8,.cls-9{fill:none;}.cls-2{fill:#999;stroke:#999;stroke-width:1.71px;}.cls-2,.cls-3,.cls-4,.cls-5{stroke-miterlimit:10;}.cls-3,.cls-4,.cls-5{fill:#333;stroke:#ccc;}.cls-3{stroke-width:2.4px;}.cls-4{stroke-width:1.39px;}.cls-5{stroke-width:0.72px;}.cls-15,.cls-19,.cls-20,.cls-6{stroke:#211a13;}.cls-10,.cls-11,.cls-12,.cls-13,.cls-14,.cls-15,.cls-16,.cls-17,.cls-18,.cls-19,.cls-20,.cls-6,.cls-7,.cls-8,.cls-9{stroke-linecap:round;stroke-linejoin:round;}.cls-6,.cls-7{stroke-width:33px;}.cls-11,.cls-7,.cls-8,.cls-9{stroke:#e4b17a;}.cls-8{stroke-width:8.25px;}.cls-9{stroke-width:24.75px;}.cls-10{stroke:#d4145a;stroke-width:3px;}.cls-11{stroke-width:8px;}.cls-12{stroke:#a4235c;}.cls-12,.cls-16{stroke-width:1.65px;}.cls-13{stroke:#f14b94;}.cls-13,.cls-17{stroke-width:6.6px;}.cls-14,.cls-17{stroke:#fff;}.cls-14{stroke-width:2.47px;}.cls-15,.cls-18{stroke-width:3.3px;}.cls-16{stroke:#42210b;}.cls-18{stroke:#000;}.cls-19{stroke-width:4.95px;}.cls-20{stroke-width:9.9px;}</style><symbol id="digital" data-name="digital" viewBox="0 0 65.36 65"><rect class="cls-1" width="65" height="65"/><path class="cls-2" d="M41.47,49.38h4.08a.92.92,0,0,1,.91.81L48,62.79a.92.92,0,0,1-.91,1H40a.92.92,0,0,1-.91-1l1.5-12.6A.92.92,0,0,1,41.47,49.38Z"/><rect class="cls-3" x="22.87" y="26.5" width="41.29" height="27.39" rx="2.82" ry="2.82"/><rect class="cls-3" x="22.87" y="24.73" width="41.29" height="27.39" rx="2.82" ry="2.82"/><rect class="cls-4" x="43.52" y="10.3" width="16.93" height="22.41" rx="2.82" ry="2.82"/><rect class="cls-4" x="43.52" y="8.85" width="16.93" height="22.41" rx="2.82" ry="2.82"/><rect class="cls-5" x="39.28" y="25.59" width="8.47" height="12.12" rx="2.82" ry="2.82"/><rect class="cls-5" x="39.28" y="24.81" width="8.47" height="12.12" rx="2.82" ry="2.82"/><g id="backhair"><line class="cls-6" x1="17.74" y1="16.52" x2="17.74" y2="19.91"/><line class="cls-6" x1="20.88" y1="16.52" x2="20.88" y2="19.91"/></g><g id="face"><line class="cls-7" x1="19.81" y1="21.31" x2="19.81" y2="27.99"/><line class="cls-8" x1="4.3" y1="25.93" x2="4.3" y2="30.13"/><line id="jaw" class="cls-9" x1="15.64" y1="32.24" x2="25.95" y2="32.24"/></g><line id="moutho" class="cls-10" x1="19.63" y1="37" x2="19.63" y2="34"/><g id="mouthm"><line class="cls-11" x1="16.13" y1="35" x2="25.13" y2="35"/><path id="mouth" class="cls-12" d="M16.26,34.34s1.15.91,4.54.91,4.54-.91,4.54-.91"/></g><g id="mouthi"><path class="cls-13" d="M24.18,35.83a22.94,22.94,0,0,1-7.75,0"/><line class="cls-14" x1="24.78" y1="37.31" x2="16.26" y2="37.31"/><line class="cls-14" x1="24.78" y1="34.46" x2="16.26" y2="34.46"/></g><g id="brows"><path class="cls-15" d="M30,14.67a5.86,5.86,0,0,0-3.22-.82,5.86,5.86,0,0,0-3.22.82"/><path class="cls-15" d="M17.25,14.67A5.86,5.86,0,0,0,14,13.84a5.86,5.86,0,0,0-3.22.82"/></g><g id="eyeshappy"><line class="cls-11" x1="28.13" y1="25" x2="10.13" y2="25"/><path id="eyeclosed" class="cls-16" d="M16.06,25.1a4.12,4.12,0,0,0-2.43-.5,4.12,4.12,0,0,0-2.43.5"/><path id="eyeclosed-2" data-name="eyeclosed" class="cls-16" d="M28.71,25.1a4.12,4.12,0,0,0-2.43-.5,4.12,4.12,0,0,0-2.43.5"/></g><g id="eyesClosed"><line class="cls-11" x1="10.13" y1="25" x2="28.13" y2="25"/><path id="eyeclosed-3" data-name="eyeclosed" class="cls-16" d="M24.38,24.6a4.12,4.12,0,0,0,2.43.5,4.12,4.12,0,0,0,2.43-.5"/><path id="eyeclosed-4" data-name="eyeclosed" class="cls-16" d="M11.73,24.6a4.12,4.12,0,0,0,2.43.5,4.12,4.12,0,0,0,2.43-.5"/></g><g id="eyes"><line class="cls-17" x1="26.82" y1="22.79" x2="26.82" y2="24.28"/><line class="cls-18" x1="26.32" y1="23.47" x2="26.32" y2="24.29"/><line class="cls-17" x1="14.11" y1="22.79" x2="14.11" y2="24.28"/><line class="cls-18" x1="13.62" y1="23.47" x2="13.62" y2="24.29"/></g><g id="fronthair"><line class="cls-19" x1="5.37" y1="12.4" x2="5.37" y2="22.63"/><path class="cls-20" d="M8,10.36a26.65,26.65,0,0,0,9.64-.52c5.61-1.25,7.66-3,7.66-3"/></g></symbol></defs><title>digital</title><g id="icones"><use width="65.36" height="65" transform="translate(2.32 2.5)" xlink:href="#digital"/></g></svg>