<svg xmlns="http://www.w3.org/2000/svg" xmlns:xlink="http://www.w3.org/1999/xlink" viewBox="0 0 70 70"><defs><style>.cls-1,.cls-10,.cls-11,.cls-12,.cls-13,.cls-14,.cls-15,.cls-16,.cls-17,.cls-18,.cls-19,.cls-20,.cls-21,.cls-22,.cls-23,.cls-7,.cls-8,.cls-9{fill:none;}.cls-2{fill:#c1272d;}.cls-3{fill:#611417;}.cls-4{fill:#fff;}.cls-5{fill:#dfd0d1;}.cls-6{fill:#ae1218;}.cls-18,.cls-22,.cls-23,.cls-7{stroke:#211a13;}.cls-10,.cls-11,.cls-12,.cls-13,.cls-14,.cls-15,.cls-16,.cls-17,.cls-18,.cls-19,.cls-20,.cls-21,.cls-22,.cls-23,.cls-7,.cls-8,.cls-9{stroke-linecap:round;stroke-linejoin:round;}.cls-7,.cls-8{stroke-width:33px;}.cls-10,.cls-12,.cls-8,.cls-9{stroke:#e4b17a;}.cls-9{stroke-width:8.25px;}.cls-10{stroke-width:24.75px;}.cls-11,.cls-17{stroke:#d4145a;}.cls-11{stroke-width:3px;}.cls-12{stroke-width:8px;}.cls-13{stroke:#a4235c;}.cls-13,.cls-19{stroke-width:1.65px;}.cls-14,.cls-16{stroke:#f14b94;}.cls-14,.cls-20{stroke-width:6.6px;}.cls-15,.cls-20{stroke:#fff;}.cls-15{stroke-width:2.47px;}.cls-16,.cls-23{stroke-width:9.9px;}.cls-17,.cls-18,.cls-21{stroke-width:3.3px;}.cls-19{stroke:#42210b;}.cls-21{stroke:#000;}.cls-22{stroke-width:4.95px;}</style><symbol id="formation" data-name="formation" viewBox="0 0 65 65"><rect class="cls-1" width="65" height="65"/><path class="cls-2" d="M36.29,38.39l0,0A5.32,5.32,0,1,0,30.71,31L20.07,57.42v0h0A3,3,0,0,0,19.65,59,5.5,5.5,0,0,0,25,64.5H53.6L64.49,38.6,64.61,37Z"/><path class="cls-3" d="M36.35,36.5l0,.16a5.22,5.22,0,0,0,4.64-5.17,5.28,5.28,0,0,0-5.32-5.27,5.35,5.35,0,0,0-4.9,3.28L20,56a10.78,10.78,0,0,0-.41,2.13A5.42,5.42,0,0,0,25,63.5H53.23l11.38-27Z"/><path class="cls-4" d="M52.26,62.61c-1.51,0-2.74-2.05-2.74-4.58s1.23-4.58,2.74-4.58H24.66c-1.51,0-3.76,2.05-3.76,4.58s1.65,4.58,3.76,4.58Z"/><path class="cls-5" d="M52.26,62.61c-1.51,0-2.74-2.05-2.74-4.58s1.23-4.58,2.74-4.58l11-25c-1.51,0-2.74,2.05-2.74,4.58s1.23,4.58,2.74,4.58Z"/><polygon class="cls-3" points="52.93 53.45 24.66 53.45 36.35 26.27 64.61 26.27 52.93 53.45"/><polygon class="cls-6" points="52.37 52.53 26.01 52.53 36.91 27.19 63.27 27.19 52.37 52.53"/><g id="backhair"><line class="cls-7" x1="18.12" y1="16.72" x2="18.12" y2="20.1"/><line class="cls-7" x1="21.25" y1="16.72" x2="21.25" y2="20.1"/></g><g id="face"><line class="cls-8" x1="20.18" y1="21.5" x2="20.18" y2="28.18"/><line class="cls-9" x1="4.67" y1="26.12" x2="4.67" y2="30.33"/><line id="jaw" class="cls-10" x1="16.02" y1="32.43" x2="26.33" y2="32.43"/></g><line id="moutho" class="cls-11" x1="20" y1="37.19" x2="20" y2="34.19"/><g id="mouthm"><line class="cls-12" x1="16.5" y1="35.19" x2="25.5" y2="35.19"/><path id="mouth" class="cls-13" d="M16.63,34.54s1.15.91,4.54.91,4.54-.91,4.54-.91"/></g><g id="mouthi"><path class="cls-14" d="M24.55,36a22.94,22.94,0,0,1-7.75,0"/><line class="cls-15" x1="25.16" y1="37.51" x2="16.63" y2="37.51"/><line class="cls-15" x1="25.16" y1="34.66" x2="16.63" y2="34.66"/></g><g id="moutha"><path class="cls-16" d="M25.54,36.85a12.06,12.06,0,0,1-4.37.66A10.56,10.56,0,0,1,17,36.85"/><line class="cls-17" x1="24.72" y1="39.98" x2="17.95" y2="39.98"/></g><g id="brows"><path class="cls-18" d="M30.33,14.86A5.86,5.86,0,0,0,27.11,14a5.86,5.86,0,0,0-3.22.82"/><path class="cls-18" d="M17.62,14.86A5.86,5.86,0,0,0,14.41,14a5.86,5.86,0,0,0-3.22.82"/></g><g id="eyeshappy"><line class="cls-12" x1="28.5" y1="25.19" x2="10.5" y2="25.19"/><path id="eyeclosed" class="cls-19" d="M16.43,25.3A4.12,4.12,0,0,0,14,24.8a4.12,4.12,0,0,0-2.43.5"/><path id="eyeclosed-2" data-name="eyeclosed" class="cls-19" d="M29.08,25.3a4.12,4.12,0,0,0-2.43-.5,4.12,4.12,0,0,0-2.43.5"/></g><g id="eyesClosed"><line class="cls-12" x1="10.5" y1="25.19" x2="28.5" y2="25.19"/><path id="eyeclosed-3" data-name="eyeclosed" class="cls-19" d="M24.76,24.8a4.12,4.12,0,0,0,2.43.5,4.12,4.12,0,0,0,2.43-.5"/><path id="eyeclosed-4" data-name="eyeclosed" class="cls-19" d="M12.1,24.8a4.12,4.12,0,0,0,2.43.5A4.12,4.12,0,0,0,17,24.8"/></g><g id="eyes"><line class="cls-20" x1="27.19" y1="22.99" x2="27.19" y2="24.47"/><line class="cls-21" x1="26.7" y1="23.67" x2="26.7" y2="24.49"/><line class="cls-20" x1="14.49" y1="22.99" x2="14.49" y2="24.47"/><line class="cls-21" x1="13.99" y1="23.67" x2="13.99" y2="24.49"/></g><g id="fronthair"><line class="cls-22" x1="5.74" y1="12.59" x2="5.74" y2="22.82"/><path class="cls-23" d="M8.36,10.56A26.65,26.65,0,0,0,18,10c5.61-1.25,7.66-3,7.66-3"/></g></symbol></defs><title>formation</title><g id="icones"><use width="65" height="65" transform="translate(2.5 2.5)" xlink:href="#formation"/></g></svg>