<svg xmlns="http://www.w3.org/2000/svg" xmlns:xlink="http://www.w3.org/1999/xlink" viewBox="0 0 70 70"><defs><style>.cls-1{fill:none;}.cls-2{fill:#29abe2;}.cls-3{fill:#1f80aa;}.cls-4{fill:#7fcdee;}.cls-5{fill:#9e005d;}.cls-6{fill:#770046;}.cls-7{fill:#c5669e;}</style><symbol id="frameworks" data-name="frameworks" viewBox="0 0 65 65"><rect class="cls-1" width="65" height="65"/><polygon class="cls-2" points="33.14 47.3 15.99 38.62 40.13 26.39 57.28 35.07 33.14 47.3"/><path class="cls-3" d="M44.23,28.53c0-.57-.43-1.14-1.28-1.57a7.71,7.71,0,0,0-6.19,0c-.86.43-1.28,1-1.28,1.57v2.66c0,.57.43,1.14,1.28,1.57a7.71,7.71,0,0,0,6.19,0c.86-.43,1.28-1,1.28-1.57Z"/><path class="cls-3" d="M52.32,32.62c0-.57-.43-1.14-1.28-1.57a7.71,7.71,0,0,0-6.19,0c-.86.43-1.28,1-1.28,1.57v2.66c0,.57.43,1.14,1.28,1.57a7.71,7.71,0,0,0,6.19,0c.86-.43,1.28-1,1.28-1.57Z"/><path class="cls-3" d="M36.88,32.25c0-.57-.43-1.14-1.28-1.57a7.71,7.71,0,0,0-6.19,0c-.86.43-1.28,1-1.28,1.57v2.66c0,.57.43,1.14,1.28,1.57a7.71,7.71,0,0,0,6.19,0c.86-.43,1.28-1,1.28-1.57Z"/><path class="cls-3" d="M45,36.34c0-.57-.43-1.14-1.28-1.57a7.71,7.71,0,0,0-6.19,0c-.86.43-1.28,1-1.28,1.57V39c0,.57.43,1.14,1.28,1.57a7.71,7.71,0,0,0,6.19,0c.86-.43,1.28-1,1.28-1.57Z"/><path class="cls-3" d="M20.77,36c0-.57.43-1.14,1.28-1.57a7.06,7.06,0,0,1,3.1-.65,7.06,7.06,0,0,1,3.1.65c.86.43,1.28,1,1.28,1.57v2.66c0,.57-.43,1.14-1.28,1.57a7.06,7.06,0,0,1-3.1.65,7.06,7.06,0,0,1-3.1-.65c-.86-.43-1.28-1-1.28-1.57Z"/><path class="cls-3" d="M28.86,40.07c0-.57.43-1.14,1.28-1.57a7.71,7.71,0,0,1,6.19,0c.86.43,1.28,1,1.28,1.57v2.66c0,.57-.43,1.14-1.28,1.57a7.71,7.71,0,0,1-6.19,0c-.86-.43-1.28-1-1.28-1.57Z"/><path class="cls-2" d="M28.25,37.37a7.71,7.71,0,0,1-6.19,0c-1.71-.87-1.71-2.27,0-3.14a7.71,7.71,0,0,1,6.19,0C30,35.1,30,36.5,28.25,37.37Z"/><path class="cls-2" d="M35.6,33.65a7.71,7.71,0,0,1-6.19,0c-1.71-.87-1.71-2.27,0-3.14a7.71,7.71,0,0,1,6.19,0C37.31,31.38,37.31,32.78,35.6,33.65Z"/><path class="cls-2" d="M42.95,29.92a7.71,7.71,0,0,1-6.19,0c-1.71-.87-1.71-2.27,0-3.14a7.71,7.71,0,0,1,6.19,0C44.66,27.65,44.66,29.06,42.95,29.92Z"/><path class="cls-2" d="M36.33,41.47a7.71,7.71,0,0,1-6.19,0c-1.71-.87-1.71-2.27,0-3.14a7.71,7.71,0,0,1,6.19,0C38,39.2,38,40.6,36.33,41.47Z"/><path class="cls-2" d="M43.69,37.74a7.71,7.71,0,0,1-6.19,0c-1.71-.87-1.71-2.27,0-3.14a7.71,7.71,0,0,1,6.19,0C45.4,35.47,45.4,36.88,43.69,37.74Z"/><path class="cls-2" d="M51,34a7.71,7.71,0,0,1-6.19,0c-1.71-.87-1.71-2.27,0-3.14a7.71,7.71,0,0,1,6.19,0C52.75,31.75,52.75,33.15,51,34Z"/><polygon class="cls-3" points="32.99 61.17 15.99 52.6 15.99 38.62 32.99 47.19 32.99 61.17"/><polygon class="cls-4" points="32.99 61.17 57.28 49.07 57.28 35.08 32.99 47.19 32.99 61.17"/><polygon class="cls-5" points="31.86 24.98 49.01 16.3 24.87 4.08 7.72 12.76 31.86 24.98"/><path class="cls-6" d="M20.77,6.21c0-.57.43-1.14,1.28-1.57A7.06,7.06,0,0,1,25.15,4a7.06,7.06,0,0,1,3.1.65c.86.43,1.28,1,1.28,1.57V8.87c0,.57-.43,1.14-1.28,1.57a7.06,7.06,0,0,1-3.1.65,7.06,7.06,0,0,1-3.1-.65c-.86-.43-1.28-1-1.28-1.57Z"/><path class="cls-6" d="M12.68,10.31c0-.57.43-1.14,1.28-1.57a7.06,7.06,0,0,1,3.1-.65,7.06,7.06,0,0,1,3.1.65c.86.43,1.28,1,1.28,1.57V13c0,.57-.43,1.14-1.28,1.57a7.06,7.06,0,0,1-3.1.65,7.06,7.06,0,0,1-3.1-.65c-.86-.43-1.28-1-1.28-1.57Z"/><path class="cls-6" d="M28.12,9.93c0-.57.43-1.14,1.28-1.57a7.71,7.71,0,0,1,6.19,0c.86.43,1.28,1,1.28,1.57v2.66c0,.57-.43,1.14-1.28,1.57a7.71,7.71,0,0,1-6.19,0c-.86-.43-1.28-1-1.28-1.57Z"/><path class="cls-6" d="M20,14c0-.57.43-1.14,1.28-1.57a7.06,7.06,0,0,1,3.1-.65,7.06,7.06,0,0,1,3.1.65c.86.43,1.28,1,1.28,1.57v2.66c0,.57-.43,1.14-1.28,1.57a7.06,7.06,0,0,1-3.1.65,7.06,7.06,0,0,1-3.1-.65c-.86-.43-1.28-1-1.28-1.57Z"/><path class="cls-6" d="M44.23,13.66c0-.57-.43-1.14-1.28-1.57a7.71,7.71,0,0,0-6.19,0c-.86.43-1.28,1-1.28,1.57v2.66c0,.57.43,1.14,1.28,1.57a7.71,7.71,0,0,0,6.19,0c.86-.43,1.28-1,1.28-1.57Z"/><path class="cls-6" d="M36.14,17.75c0-.57-.43-1.14-1.28-1.57a7.71,7.71,0,0,0-6.19,0c-.86.43-1.28,1-1.28,1.57v2.66c0,.57.43,1.14,1.28,1.57a7.71,7.71,0,0,0,6.19,0c.86-.43,1.28-1,1.28-1.57Z"/><path class="cls-5" d="M36.75,15.06a7.71,7.71,0,0,0,6.19,0c1.71-.87,1.71-2.27,0-3.14a7.71,7.71,0,0,0-6.19,0C35,12.79,35,14.19,36.75,15.06Z"/><path class="cls-5" d="M29.4,11.33a7.71,7.71,0,0,0,6.19,0c1.71-.87,1.71-2.27,0-3.14a7.71,7.71,0,0,0-6.19,0C27.69,9.06,27.69,10.47,29.4,11.33Z"/><path class="cls-5" d="M22.05,7.61a7.71,7.71,0,0,0,6.19,0c1.71-.87,1.71-2.27,0-3.14a7.71,7.71,0,0,0-6.19,0C20.34,5.34,20.34,6.74,22.05,7.61Z"/><path class="cls-5" d="M28.67,19.15a7.71,7.71,0,0,0,6.19,0c1.71-.87,1.71-2.27,0-3.14a7.71,7.71,0,0,0-6.19,0C27,16.88,27,18.29,28.67,19.15Z"/><path class="cls-5" d="M21.31,15.43a7.71,7.71,0,0,0,6.19,0c1.71-.87,1.71-2.27,0-3.14a7.71,7.71,0,0,0-6.19,0C19.6,13.16,19.6,14.56,21.31,15.43Z"/><path class="cls-5" d="M14,11.71a7.71,7.71,0,0,0,6.19,0c1.71-.87,1.71-2.27,0-3.14a7.71,7.71,0,0,0-6.19,0C12.25,9.44,12.25,10.84,14,11.71Z"/><polygon class="cls-7" points="32.01 38.86 49.01 30.29 49.01 16.3 32.01 24.88 32.01 38.86"/><polygon class="cls-6" points="32.01 38.86 7.72 26.75 7.72 12.77 32.01 24.88 32.01 38.86"/></symbol></defs><title>framework</title><g id="icones"><use width="65" height="65" transform="translate(2.5 2.5)" xlink:href="#frameworks"/></g></svg>