<svg xmlns="http://www.w3.org/2000/svg" xmlns:xlink="http://www.w3.org/1999/xlink" viewBox="0 0 70 70"><defs><style>.cls-1{fill:none;}.cls-2{fill:#e34f26;}.cls-3{fill:#ef652a;}.cls-4{fill:#ebebeb;}.cls-5{fill:#fff;}</style><symbol id="html5" data-name="html5" viewBox="0 0 65 65"><rect class="cls-1" width="65" height="65"/><path class="cls-2" d="M11.62,55.59,7,3.52H58L53.38,55.59,32.44,61.48Z"/><path class="cls-3" d="M32.56,56.95l16.87-4.64,4-44.6H32.56Z"/><path class="cls-4" d="M32.56,27.07H24.07L23.5,20.5h9.06V14.16H16.48l.11,1.7,1.58,17.66H32.56Zm0,16.64h-.11l-7.13-1.92-.45-5.09H18.52l.79,10.07,13.13,3.62h.11Z"/><path class="cls-5" d="M32.44,27.07v6.45h7.92l-.79,8.26-7.13,1.92v6.68l13.13-3.62.11-1.13,1.47-16.87.23-1.7H32.44Zm0-12.9V20.5H48l.11-1.36.34-3.28.11-1.7Z"/></symbol></defs><title>html5</title><g id="icones"><use width="65" height="65" transform="translate(2.5 2.5)" xlink:href="#html5"/></g></svg>