<svg xmlns="http://www.w3.org/2000/svg" xmlns:xlink="http://www.w3.org/1999/xlink" viewBox="0 0 70 70"><defs><style>.cls-1{fill:none;}.cls-2,.cls-3{opacity:0.95;}.cls-2{fill:url(#linear-gradient);}.cls-3{fill:url(#linear-gradient-2);}.cls-4{fill:url(#linear-gradient-3);}.cls-5{opacity:0.1;mix-blend-mode:multiply;}.cls-6{fill:url(#linear-gradient-4);}.cls-7{fill:url(#linear-gradient-5);}</style><linearGradient id="linear-gradient" x1="0.5" y1="32.5" x2="64.5" y2="32.5" gradientUnits="userSpaceOnUse"><stop offset="0" stop-color="#5e4421"/><stop offset="1" stop-color="#373100"/></linearGradient><linearGradient id="linear-gradient-2" x1="2.88" y1="3.01" x2="55.92" y2="56.05" xlink:href="#linear-gradient"/><linearGradient id="linear-gradient-3" x1="0.17" y1="0.84" x2="58.51" y2="57.84" gradientUnits="userSpaceOnUse"><stop offset="0" stop-color="#fdc45e"/><stop offset="1" stop-color="#fc9c0d"/></linearGradient><linearGradient id="linear-gradient-4" x1="14.56" y1="28.95" x2="41.89" y2="28.95" xlink:href="#linear-gradient-3"/><linearGradient id="linear-gradient-5" x1="14.56" y1="28.66" x2="41.89" y2="28.66" xlink:href="#linear-gradient-3"/><symbol id="illustrator" data-name="illustrator" viewBox="0 0 65 65"><rect class="cls-1" width="65" height="65"/><polygon class="cls-2" points="58.18 0.5 0.5 0.5 0.5 58.18 7.42 64.5 64.5 64.5 64.5 7.42 58.18 0.5"/><rect class="cls-3" x="2.79" y="3.09" width="53.22" height="52.87"/><path class="cls-4" d="M.5.5V58.18H58.18V.5ZM53.6,53.61H5.21V5.19H53.6Z"/><g class="cls-5"><path d="M21.52,35l-2.05,6.92H15l7.64-24.41h5.55l7.75,24.41H31.25L29.09,35Zm6.83-3.37-1.88-6c-.46-1.48-.85-3.15-1.2-4.56H25.2c-.35,1.41-.71,3.11-1.13,4.56l-1.84,6Z"/></g><path class="cls-6" d="M21.52,34.24l-2.05,6.92H15l7.64-24.41h5.55l7.75,24.41H31.25l-2.16-6.92Zm6.83-3.37-1.88-6c-.46-1.48-.85-3.15-1.2-4.56H25.2c-.35,1.41-.71,3.11-1.13,4.56l-1.84,6Z"/><g class="cls-5"><path d="M42.25,19.39A2.44,2.44,0,1,1,39.81,17,2.33,2.33,0,0,1,42.25,19.39ZM37.61,41.95V24.31H42V41.95Z"/></g><path class="cls-7" d="M42.25,18.59a2.44,2.44,0,1,1-2.44-2.43A2.33,2.33,0,0,1,42.25,18.59ZM37.61,41.15V23.52H42V41.15Z"/></symbol></defs><title>illustrator</title><g id="icones"><use width="65" height="65" transform="translate(2.5 2.5)" xlink:href="#illustrator"/></g></svg>