<svg xmlns="http://www.w3.org/2000/svg" xmlns:xlink="http://www.w3.org/1999/xlink" viewBox="0 0 70 70"><defs><style>.cls-1{fill:none;}.cls-2{fill:#e6a40e;}.cls-3{fill:#e8c600;}.cls-4{fill:#cfcfcf;}.cls-5{fill:#fff;}</style><symbol id="javascript" data-name="javascript" viewBox="0 0 65 65"><rect class="cls-1" width="65" height="65"/><g id="_0170baff" data-name="#0170baff"><path class="cls-2" d="M6.62,3.14H58.4Q57,19.25,55.52,35.34q-.89,10.28-1.84,20.57c-3.68,1-7.34,2.09-11,3.07-3.39,1-6.79,1.89-10.18,2.88h-.1c-3.21-1-6.47-1.81-9.68-2.76-3.8-1-7.56-2.17-11.36-3.18-.5-5.13-.94-10.28-1.39-15.42C9.13,31,8.22,21.5,7.42,12c-.27-2.86-.48-5.72-.82-8.58V3.14m26,4.24c0,2.06,0,49.83,0,49.83s1.23-.26,1.82-.43c5.08-1.37,10.16-2.8,15.26-4.19.26-2,.37-4,.58-6q.79-9.13,1.61-18.28c.66-7,1.21-14,1.87-20.92C46.67,7.38,39.62,7.36,32.59,7.38Z"/></g><g id="_29a9dfff" data-name="#29a9dfff"><path class="cls-3" d="M32.59,7.38c7,0,14.08,0,21.13,0-.66,7-1.21,14-1.87,20.92Q51,37.41,50.23,46.56c-.21,2-.32,4-.58,6L34.39,56.78c-.59.19-1.82.43-1.82.43l0-43.61S32.56,9.44,32.59,7.38Z"/></g><polygon class="cls-4" points="25.32 12.61 30.07 13.66 30.07 50.3 17.91 48.16 16.58 39.53 20.98 39.65 21.5 43.29 25.44 44.1 25.32 12.61"/><polygon class="cls-5" points="34.99 14.41 34.99 35.31 41.47 34.9 42.05 41.79 34.99 42.54 34.99 50.01 45.76 47.23 46.34 25.87 39.04 27.72 39.04 21.18 46.34 18.98 46.34 12.21 34.99 14.41"/></symbol></defs><title>javascript</title><g id="icones"><use width="65" height="65" transform="translate(2.5 2.5)" xlink:href="#javascript"/></g></svg>