<svg xmlns="http://www.w3.org/2000/svg" xmlns:xlink="http://www.w3.org/1999/xlink" viewBox="0 0 70 70"><defs><style>.cls-1{fill:none;}.cls-2{fill:#0868ac;}</style><symbol id="jquery" data-name="jquery" viewBox="0 0 65 65"><rect class="cls-1" width="65" height="65"/><path class="cls-2" d="M8.49,18.43c-4.87,7-4.26,16.1-.54,23.56.09.18.18.35.27.53l.17.34.11.19.19.35.36.61.2.33.41.64.18.27c.19.29.39.58.6.86l.12.16.54.72.21.26.5.62.19.23.7.8,0,0,.71.75.23.23.57.56.23.22.78.71.85.72.29.23.59.46.31.24.66.47.31.22.64.42.28.19,1,.62.28.17.76.42.42.21.54.28.13.06.22.11.86.4.18.08,1,.41.24.1.94.35.12,0,1,.34.25.08a8.83,8.83,0,0,0,1.08.31c23.55,4.29,30.39-14.15,30.39-14.15C52.92,51.69,42.72,53.66,33,51.47c-.37-.08-.72-.2-1.08-.3l-.27-.08-1-.34-.14-.05-.91-.34-.26-.1-1-.41-.2-.09-.83-.39-.24-.12c-.22-.1-.43-.22-.64-.34L26,48.68l-.77-.43L25,48.1l-1-.62-.27-.18L23,46.83a2.23,2.23,0,0,1-.23-.16l-.68-.49-.3-.23-.61-.48-.27-.22-.76-.64L20,44.54l-.8-.73L19,43.6,18.45,43l-.22-.22c-.24-.25-.47-.49-.69-.75l0,0q-.37-.4-.72-.82L16.61,41l-.52-.64-.17-.24-.6-.79C9.93,32,8,21.9,12.29,13.61m11.32-1.07C20.09,17.61,20.28,24.4,23,29.75a22.46,22.46,0,0,0,1.56,2.6,12.35,12.35,0,0,0,1.81,2.26c.25.28.52.55.79.82l.21.21q.39.38.81.75l0,0c.31.28.63.52,1,.79l.21.17q.48.37,1,.72l0,0,.45.3.21.14.73.45.1.06.65.34c.08,0,.17.08.23.12l.45.23.07,0q.47.23.94.44l.21.09.77.31.33.12.71.25.32.1a8.55,8.55,0,0,0,1,.3c18.18,3,22.38-11,22.38-11-3.78,5.45-11.11,8-18.93,6l-1-.3-.31-.1L39,35.76l-.34-.12-.77-.31-.21-.09-.95-.44-.48-.24L36,34.42l-.6-.34L35.23,34l-.73-.45-.22-.15-.47-.31q-.5-.35-1-.72l-.22-.17a21.83,21.83,0,0,1-7.43-10.58A16.42,16.42,0,0,1,26.46,8.45m9.86-.31a10.6,10.6,0,0,0-.84,10.22,14.47,14.47,0,0,0,8.26,7.74l.45.17.2.06.65.17c10,1.94,12.76-5.15,13.49-6.2-2.39,3.43-6.39,4.26-11.31,3.06-.39-.09-.82-.24-1.19-.37a14.36,14.36,0,0,1-3.89-2.1C37.74,17.57,35,11.18,37.87,6"/></symbol></defs><title>jquery</title><g id="icones"><use width="65" height="65" transform="translate(2.5 2.5)" xlink:href="#jquery"/></g></svg>