<svg xmlns="http://www.w3.org/2000/svg" xmlns:xlink="http://www.w3.org/1999/xlink" viewBox="0 0 70 70"><defs><style>.cls-1{fill:none;}.cls-2{fill:#689f63;}</style><symbol id="nodejs" data-name="nodejs" viewBox="0 0 65 65"><rect class="cls-1" width="65" height="65"/><path class="cls-2" d="M32.51,60a4.24,4.24,0,0,1-2.11-.57l-6.73-4c-1-.56-.51-.76-.18-.88a13.58,13.58,0,0,0,3-1.39.51.51,0,0,1,.5,0l5.17,3.07a.68.68,0,0,0,.62,0L53,44.66a.64.64,0,0,0,.31-.54V20.86A.65.65,0,0,0,53,20.3L32.82,8.68a.62.62,0,0,0-.62,0L12.06,20.3a.64.64,0,0,0-.32.55V44.11a.62.62,0,0,0,.31.54l5.52,3.19c3,1.5,4.83-.27,4.83-2v-23a.58.58,0,0,1,.59-.58h2.55a.58.58,0,0,1,.58.58v23c0,4-2.18,6.29-6,6.29-1.17,0-2.08,0-4.65-1.26l-5.29-3a4.26,4.26,0,0,1-2.11-3.68V20.85a4.23,4.23,0,0,1,2.11-3.67L30.39,5.54a4.42,4.42,0,0,1,4.24,0L54.78,17.18a4.25,4.25,0,0,1,2.11,3.67V44.11a4.26,4.26,0,0,1-2.11,3.67L34.63,59.42a4.24,4.24,0,0,1-2.12.57"/><path class="cls-2" d="M38.73,44c-8.82,0-10.67-4-10.67-7.44a.58.58,0,0,1,.58-.58h2.6a.58.58,0,0,1,.58.49c.39,2.65,1.56,4,6.9,4,4.25,0,6.05-1,6.05-3.21,0-1.3-.51-2.26-7.11-2.91-5.52-.54-8.93-1.76-8.93-6.17,0-4.07,3.43-6.49,9.18-6.49,6.45,0,9.65,2.24,10.05,7.05a.59.59,0,0,1-.16.45.6.6,0,0,1-.43.19H44.76a.58.58,0,0,1-.57-.45c-.63-2.79-2.15-3.68-6.3-3.68-4.64,0-5.18,1.61-5.18,2.83,0,1.47.64,1.9,6.89,2.72s9.14,2,9.14,6.34S45.09,44,38.71,44"/></symbol></defs><title>nodejs</title><g id="icones"><use width="65" height="65" transform="translate(2.5 2.5)" xlink:href="#nodejs"/></g></svg>