<svg xmlns="http://www.w3.org/2000/svg" xmlns:xlink="http://www.w3.org/1999/xlink" viewBox="0 0 70 70"><defs><style>.cls-1{fill:none;}.cls-2,.cls-3{opacity:0.95;}.cls-2{fill:url(#linear-gradient);}.cls-3{fill:url(#linear-gradient-2);}.cls-4{fill:url(#linear-gradient-3);}.cls-5{opacity:0.1;mix-blend-mode:multiply;}.cls-6{fill:url(#linear-gradient-4);}.cls-7{fill:url(#linear-gradient-5);}</style><linearGradient id="linear-gradient" x1="0.5" y1="32.5" x2="63.5" y2="32.5" gradientUnits="userSpaceOnUse"><stop offset="0" stop-color="#32297c"/><stop offset="1" stop-color="#282761"/></linearGradient><linearGradient id="linear-gradient-2" x1="3.2" y1="2.65" x2="55.95" y2="55.4" xlink:href="#linear-gradient"/><linearGradient id="linear-gradient-3" x1="0.17" y1="0.83" x2="57.52" y2="56.86" gradientUnits="userSpaceOnUse"><stop offset="0" stop-color="#95c8fd"/><stop offset="1" stop-color="#73b4f4"/></linearGradient><linearGradient id="linear-gradient-4" x1="15.6" y1="28.31" x2="44.49" y2="28.31" xlink:href="#linear-gradient-3"/><linearGradient id="linear-gradient-5" x1="15.6" y1="31.72" x2="44.49" y2="31.72" xlink:href="#linear-gradient-3"/><symbol id="photoshop" data-name="photoshop" viewBox="0 0 65 65"><rect class="cls-1" width="65" height="65"/><polygon class="cls-2" points="57.19 0.5 0.5 0.5 0.5 57.19 7.3 64.5 63.5 64.5 63.5 7.3 57.19 0.5"/><rect class="cls-3" x="2.81" y="3.05" width="53.53" height="51.96"/><path class="cls-4" d="M.5.5V57.19H57.19V.5ZM52.68,52.7H5.13V5.11H52.68Z"/><g class="cls-5"><path d="M15.75,17.52a37.92,37.92,0,0,1,6.69-.5c3.2,0,5.55.68,7.08,2a6.78,6.78,0,0,1,2.35,5.3,7.27,7.27,0,0,1-2.06,5.44c-1.74,1.74-4.48,2.56-7.58,2.56a12.31,12.31,0,0,1-2.14-.14v9H15.75Zm4.34,11.17a8.84,8.84,0,0,0,2.14.18c3.27,0,5.27-1.6,5.27-4.41s-1.85-4.09-4.88-4.09a12.08,12.08,0,0,0-2.53.21Z"/></g><path class="cls-6" d="M15.75,16.72a37.92,37.92,0,0,1,6.69-.5c3.2,0,5.55.68,7.08,2a6.78,6.78,0,0,1,2.35,5.3,7.27,7.27,0,0,1-2.06,5.44c-1.74,1.74-4.48,2.56-7.58,2.56a12.31,12.31,0,0,1-2.14-.14v9H15.75ZM20.09,27.9a8.84,8.84,0,0,0,2.14.18c3.27,0,5.27-1.6,5.27-4.41s-1.85-4.09-4.88-4.09a12.08,12.08,0,0,0-2.53.21Z"/><g class="cls-5"><path d="M33.22,37.16a9.76,9.76,0,0,0,4.45,1.25c1.92,0,2.78-.78,2.78-1.92S39.74,34.7,37.6,34c-3.38-1.17-4.8-3-4.77-5.05,0-3.06,2.53-5.44,6.55-5.44a10.17,10.17,0,0,1,4.59,1l-.85,3.1a7.78,7.78,0,0,0-3.67-1c-1.57,0-2.42.75-2.42,1.81s.82,1.64,3,2.42c3.13,1.14,4.59,2.74,4.63,5.3,0,3.13-2.46,5.45-7,5.45a11.16,11.16,0,0,1-5.27-1.25Z"/></g><path class="cls-7" d="M33.22,36.37a9.76,9.76,0,0,0,4.45,1.25c1.92,0,2.78-.78,2.78-1.92s-.71-1.78-2.85-2.53c-3.38-1.17-4.8-3-4.77-5.05,0-3.06,2.53-5.44,6.55-5.44a10.17,10.17,0,0,1,4.59,1l-.85,3.1a7.78,7.78,0,0,0-3.67-1c-1.57,0-2.42.75-2.42,1.81s.82,1.64,3,2.42c3.13,1.14,4.59,2.74,4.63,5.3,0,3.13-2.46,5.45-7,5.45a11.16,11.16,0,0,1-5.27-1.25Z"/></symbol></defs><title>photoshop</title><g id="icones"><use width="65" height="65" transform="translate(2.5 2.5)" xlink:href="#photoshop"/></g></svg>