<svg xmlns="http://www.w3.org/2000/svg" xmlns:xlink="http://www.w3.org/1999/xlink" viewBox="0 0 70 70"><defs><style>.cls-1{fill:none;}.cls-2{fill:#29abe2;}</style><symbol id="react" data-name="react" viewBox="0 0 65 65"><rect class="cls-1" width="65" height="65"/><path class="cls-2" d="M51.48,23.24a28.12,28.12,0,0,1,8,4.16q3,2.4,3,5.1t-3.22,5.27A25.74,25.74,0,0,1,50.78,42l-1.05.35A12.62,12.62,0,0,1,50.08,44a25.63,25.63,0,0,1,.59,6.21,14.32,14.32,0,0,1-1,4.92A5.6,5.6,0,0,1,47.27,58a7,7,0,0,1-5.8.12,24.1,24.1,0,0,1-7.32-4.34L32.62,52.3q-.59.59-1.29,1.17a22.47,22.47,0,0,1-7.56,4.63q-3.69,1.23-6-.06t-3-4.92a22.86,22.86,0,0,1,.23-8.55l.47-2.11A14.58,14.58,0,0,1,13.75,42a26.1,26.1,0,0,1-8.14-4.34Q2.5,35.08,2.5,32.5t2.93-5a23.85,23.85,0,0,1,7.85-4.1l2.11-.7a14.72,14.72,0,0,1-.35-2,21.87,21.87,0,0,1-.35-8.61q.7-3.69,3-5.1t6.09,0a22.82,22.82,0,0,1,7.73,4.92l.94.94Q33.32,12,34,11.41a22.35,22.35,0,0,1,7.32-4.57,7,7,0,0,1,5.8.12q2.46,1.29,3.16,5.21a23.62,23.62,0,0,1-.47,9.2q-.12.82-.23,1.29A17.49,17.49,0,0,1,51.48,23.24ZM16.09,40.12a58.53,58.53,0,0,1,2.81-7.62A61.24,61.24,0,0,1,16.09,25a18.81,18.81,0,0,0-2,.7A23.32,23.32,0,0,0,7.54,29Q5.08,30.86,5.08,32.5A4.68,4.68,0,0,0,7.19,36a26,26,0,0,0,7.38,3.63Q15.39,39.88,16.09,40.12ZM29.69,51.6a14.43,14.43,0,0,0,1.17-1.05,54,54,0,0,1-5-6.33,46.56,46.56,0,0,1-8-1.17q-.24.94-.47,2a23.7,23.7,0,0,0-.29,7.09Q17.5,55,19,55.82a5,5,0,0,0,4.1-.12A20.63,20.63,0,0,0,29.69,51.6ZM18.91,9.18Q17.5,10,17.09,13a22.4,22.4,0,0,0,.41,7.21L17.85,22a70.71,70.71,0,0,1,7.85-1.17,64.61,64.61,0,0,1,5-6.21l-.82-.82a22.73,22.73,0,0,0-6.45-4.28Q20.43,8.24,18.91,9.18Zm-.35,15.23q.82,2.58,1.88,5.16.7-1.41,1.64-3l1.76-3A49.28,49.28,0,0,0,18.55,24.41Zm3.52,14.18q-.7-1.41-1.64-3.16a48.13,48.13,0,0,0-1.87,5.27,38.66,38.66,0,0,0,5.39.82Q23.12,40.35,22.07,38.59Zm-.35-6.09Q23,35.08,24.3,37.3t2.81,4.57Q29.8,42,32.5,42t5.39-.12a53.34,53.34,0,0,0,2.81-4.69q1.41-2.34,2.58-4.69Q42,29.92,40.7,27.7t-2.81-4.45Q35.19,23,32.5,23t-5.39.23a42.37,42.37,0,0,0-2.81,4.57Q22.89,30.27,21.72,32.5Zm14.59,3.81a5.39,5.39,0,1,1-7.62-7.62,5.39,5.39,0,1,1,7.62,7.62Zm-3.81-20A45.56,45.56,0,0,0,29,20.55q3.52-.12,7,0A46.18,46.18,0,0,0,32.5,16.33Zm.12,32.34A54,54,0,0,0,36,44.45q-1.64.12-3.52.12T29,44.45A39.11,39.11,0,0,0,32.62,48.67Zm3-35.39q-.7.59-1.41,1.29a65.19,65.19,0,0,1,5,6.21,56.81,56.81,0,0,1,7.85,1.29q.12-.47.23-1.17a24,24,0,0,0,.53-7.73Q47.5,10,46,9.06t-4.34.35A23.33,23.33,0,0,0,35.66,13.28ZM48,52.19a23.3,23.3,0,0,0-.35-7.73A9.46,9.46,0,0,0,47.27,43a65.07,65.07,0,0,1-8,1.17,62.65,62.65,0,0,1-4.92,6.33,8.74,8.74,0,0,0,1.52,1.29,19.46,19.46,0,0,0,4,3,11.57,11.57,0,0,0,3.52,1.35A4.43,4.43,0,0,0,46,55.94,5.28,5.28,0,0,0,48,52.19Zm-5-13.71q-1.05,1.88-1.87,3,2.81-.35,5.51-.94a50.41,50.41,0,0,0-1.87-5.16Q43.75,37.19,42.93,38.48Zm1.64-8.91a34.28,34.28,0,0,0,1.88-5.16,49.28,49.28,0,0,0-5.27-.94q.82,1.52,1.76,3Q43.63,27.7,44.57,29.57Zm5.51,10.08a29,29,0,0,0,5.1-2.23,15.13,15.13,0,0,0,3.52-2.58,3.69,3.69,0,0,0,1.23-2.46q0-1.52-2.58-3.46a24.22,24.22,0,0,0-6.68-3.34q-.94-.23-1.76-.47a55.71,55.71,0,0,1-2.81,7.38A63.16,63.16,0,0,1,49,39.88,3.7,3.7,0,0,0,50.08,39.65Z"/></symbol></defs><title>react</title><g id="icones"><use width="65" height="65" transform="translate(2.5 2.5)" xlink:href="#react"/></g></svg>