<svg xmlns="http://www.w3.org/2000/svg" xmlns:xlink="http://www.w3.org/1999/xlink" viewBox="0 0 70 70"><defs><style>.cls-1{fill:none;}.cls-2{fill:#0170ba;}.cls-3{fill:#29a9df;}.cls-4{fill:#cfcfcf;}.cls-5{fill:#fff;}</style><symbol id="css3" data-name="css3" viewBox="0 0 65 65"><rect class="cls-1" width="65" height="65"/><g id="_0170baff" data-name="#0170baff"><path class="cls-2" d="M6.62,3.14H58.4Q57,19.25,55.52,35.34q-.89,10.28-1.84,20.57c-3.68,1-7.34,2.09-11,3.07-3.39,1-6.79,1.89-10.18,2.88h-.1c-3.21-1-6.47-1.81-9.68-2.76-3.8-1-7.56-2.17-11.36-3.18-.5-5.13-.94-10.28-1.39-15.42C9.13,31,8.22,21.5,7.42,12c-.27-2.86-.48-5.72-.82-8.58V3.14m26,4.24c0,2.06,0,4.12,0,6.18-5.93,0-11.84,0-17.77,0,.1,2,.37,4,.64,6,5.51.21,11,0,16.54.16-4.83,2.16-9.7,4.2-14.54,6.31a6.71,6.71,0,0,0-1.23.59c0,2.21.4,4.38.56,6.58,2.94,0,5.87-.06,8.81-.06,2.35,0,4.71,0,7.06,0-.11,3.61,0,7.24-.08,10.85-1.58-.24-3.15-.59-4.73-.86-1.25-.27-2.53-.42-3.74-.77-.18-1.74-.29-3.47-.45-5.21a4.24,4.24,0,0,0-1.1-.11c-1.77,0-3.56,0-5.34,0a99.36,99.36,0,0,0,1,10c1.76.46,3.52.91,5.26,1.39,2.68.74,5.4,1.34,8.09,2.06a3.36,3.36,0,0,0,1,.16c.18,2.19,0,4.41.08,6.6a13.74,13.74,0,0,0,1.82-.43c5.08-1.37,10.16-2.8,15.26-4.19.26-2,.37-4,.58-6q.79-9.13,1.61-18.28c.66-7,1.21-14,1.87-20.92C46.67,7.38,39.62,7.36,32.59,7.38Z"/></g><g id="_29a9dfff" data-name="#29a9dfff"><path class="cls-3" d="M32.59,7.38c7,0,14.08,0,21.13,0-.66,7-1.21,14-1.87,20.92Q51,37.41,50.23,46.56c-.21,2-.32,4-.58,6L34.39,56.78a12.07,12.07,0,0,1-1.82.43c0-2.21.11-4.41-.08-6.6l.18,0c4.73-1.18,9.43-2.49,14.16-3.72.59-6.7,1.26-13.39,1.68-20.1l-12.05,0c-.59,0-1.17,0-1.76,0,2.16-1.12,4.43-2,6.65-3s4.28-1.87,6.42-2.81A6.7,6.7,0,0,0,49,20.31a10.9,10.9,0,0,0,.19-1.6c.13-1.69.34-3.39.42-5.08-5.69,0-11.38,0-17.07,0C32.62,11.52,32.56,9.44,32.59,7.38Z"/><path class="cls-3" d="M32.62,33.11c2.75,0,5.5,0,8.25,0-.16,2.81-.38,5.61-.53,8.42-1.68.54-3.39,1-5.08,1.52a19.8,19.8,0,0,0-2.7.89C32.65,40.35,32.51,36.74,32.62,33.11Z"/></g><g id="_cfcfcfff" data-name="#cfcfcfff"><path class="cls-4" d="M14.78,13.58c5.93,0,11.84,0,17.77,0,.08,6.52,0,13,.06,19.55-2.35,0-4.71,0-7.06,0-2.94,0-5.87,0-8.81.06-.16-2.19-.51-4.38-.56-6.58A5.82,5.82,0,0,1,17.42,26c4.84-2.11,9.72-4.16,14.54-6.31-5.51-.16-11,0-16.54-.16C15.15,17.56,14.88,15.58,14.78,13.58Z"/><path class="cls-4" d="M17.18,37c1.77,0,3.56,0,5.34,0a3.7,3.7,0,0,1,1.1.11c.16,1.74.27,3.48.45,5.21,1.23.35,2.49.5,3.74.77,1.58.29,3.15.64,4.73.86.14,2.21-.11,4.41.14,6.6l-.18,0a3.36,3.36,0,0,1-1-.16c-2.68-.72-5.4-1.33-8.09-2.06-1.76-.48-3.52-.93-5.26-1.39A93.77,93.77,0,0,1,17.18,37Z"/></g><g id="_ffffffff" data-name="#ffffffff"><path class="cls-5" d="M32.56,13.58c5.69,0,11.38,0,17.07,0-.08,1.69-.3,3.39-.42,5.08a10.65,10.65,0,0,1-.19,1.6,5.82,5.82,0,0,1-1.21.62c-2.14.94-4.28,1.85-6.42,2.81s-4.49,1.87-6.65,3c.58,0,1.17,0,1.76,0,4,0,8,0,12.05,0-.42,6.71-1.09,13.41-1.68,20.1-4.71,1.23-9.43,2.54-14.16,3.72-.26-2.19,0-4.41-.14-6.6a19.8,19.8,0,0,1,2.7-.89c1.69-.51,3.4-1,5.08-1.52.14-2.81.38-5.61.53-8.42-2.75,0-5.5-.06-8.25,0C32.52,26.6,32.62,20.08,32.56,13.58Z"/></g></symbol></defs><title>css3</title><g id="icones"><use width="65" height="65" transform="translate(2.5 2.5)" xlink:href="#css3"/></g></svg>