<svg xmlns="http://www.w3.org/2000/svg" xmlns:xlink="http://www.w3.org/1999/xlink" viewBox="0 0 70 70"><defs><style>.cls-1,.cls-10,.cls-11,.cls-12,.cls-13,.cls-14,.cls-15,.cls-16,.cls-17,.cls-18,.cls-19,.cls-20,.cls-21,.cls-9{fill:none;}.cls-2,.cls-8{fill:#999;}.cls-2{stroke:#999;stroke-width:1.71px;}.cls-2,.cls-3{stroke-miterlimit:10;}.cls-3{fill:#333;stroke:#ccc;stroke-width:2.4px;}.cls-4{fill:#dfc7a2;}.cls-5{fill:#ff7bac;}.cls-6{fill:#fbb03b;}.cls-7{fill:#ae7418;}.cls-19,.cls-20,.cls-21,.cls-9{stroke:#211a13;}.cls-10,.cls-11,.cls-12,.cls-13,.cls-14,.cls-15,.cls-16,.cls-17,.cls-18,.cls-19,.cls-20,.cls-21,.cls-9{stroke-linecap:round;stroke-linejoin:round;}.cls-10,.cls-9{stroke-width:33px;}.cls-10,.cls-11,.cls-12,.cls-14{stroke:#e4b17a;}.cls-11{stroke-width:8.25px;}.cls-12{stroke-width:24.75px;}.cls-13{stroke:#d4145a;stroke-width:3px;}.cls-14{stroke-width:8px;}.cls-15{stroke:#a4235c;}.cls-15,.cls-16{stroke-width:1.65px;}.cls-16{stroke:#42210b;}.cls-17{stroke:#fff;stroke-width:6.6px;}.cls-18{stroke:#000;}.cls-18,.cls-21{stroke-width:3.3px;}.cls-19{stroke-width:4.95px;}.cls-20{stroke-width:9.9px;}</style><symbol id="métier" data-name="métier" viewBox="0 0 65.63 65"><rect class="cls-1" x="0.27" width="65" height="65"/><path class="cls-2" d="M41.75,49.38h4.08a.92.92,0,0,1,.91.81l1.5,12.6a.92.92,0,0,1-.91,1H40.25a.92.92,0,0,1-.91-1l1.5-12.6A.92.92,0,0,1,41.75,49.38Z"/><rect class="cls-3" x="23.14" y="26.5" width="41.29" height="27.39" rx="2.82" ry="2.82"/><rect class="cls-3" x="23.14" y="24.73" width="41.29" height="27.39" rx="2.82" ry="2.82"/><polygon class="cls-4" points="42.63 34.12 40.56 42.46 48.91 40.4 51.22 31.8 42.63 34.12"/><path class="cls-5" d="M63.87,19.15h0a4.44,4.44,0,0,1,0,6.28h0a4.44,4.44,0,0,1-6.28,0h0a4.44,4.44,0,0,1,0-6.28h0A4.44,4.44,0,0,1,63.87,19.15Z"/><polygon class="cls-6" points="49.32 36.84 45.77 37.26 46.18 33.7 58.04 21.85 61.18 24.99 49.32 36.84"/><polygon class="cls-7" points="48.91 40.4 49.32 36.84 61.18 24.99 62.74 26.56 48.91 40.4"/><polygon class="cls-7" points="42.63 34.12 46.18 33.7 58.04 21.85 56.47 20.28 42.63 34.12"/><path d="M39.21,43.87h0a1.08,1.08,0,0,1,0-1.53l1.07-1.07a1.08,1.08,0,0,1,1.53,0h0a1.08,1.08,0,0,1,0,1.53l-1.07,1.07A1.08,1.08,0,0,1,39.21,43.87Z"/><polygon class="cls-8" points="57.29 18.86 64.23 25.79 62.74 27.28 55.81 20.34 57.29 18.86"/><g id="backhair"><line class="cls-9" x1="17.57" y1="16.72" x2="17.57" y2="20.1"/><line class="cls-9" x1="20.71" y1="16.72" x2="20.71" y2="20.1"/></g><g id="face"><line class="cls-10" x1="19.63" y1="21.5" x2="19.63" y2="28.18"/><line class="cls-11" x1="4.12" y1="26.12" x2="4.12" y2="30.33"/><line id="jaw" class="cls-12" x1="15.47" y1="32.43" x2="25.78" y2="32.43"/></g><line id="moutho" class="cls-13" x1="19.9" y1="37" x2="19.9" y2="34"/><g id="mouthm"><line class="cls-14" x1="16.4" y1="35" x2="25.4" y2="35"/><path id="mouth" class="cls-15" d="M16.09,34.54s1.15.91,4.54.91,4.54-.91,4.54-.91"/></g><g id="eyeshappy"><line class="cls-14" x1="28.4" y1="25" x2="10.4" y2="25"/><path id="eyeclosed" class="cls-16" d="M15.88,25.3a4.12,4.12,0,0,0-2.43-.5,4.12,4.12,0,0,0-2.43.5"/><path id="eyeclosed-2" data-name="eyeclosed" class="cls-16" d="M28.53,25.3a4.12,4.12,0,0,0-2.43-.5,4.12,4.12,0,0,0-2.43.5"/></g><g id="eyesClosed"><line class="cls-14" x1="10.4" y1="25" x2="28.4" y2="25"/><path id="eyeclosed-3" data-name="eyeclosed" class="cls-16" d="M24.21,24.8a4.12,4.12,0,0,0,2.43.5,4.12,4.12,0,0,0,2.43-.5"/><path id="eyeclosed-4" data-name="eyeclosed" class="cls-16" d="M11.56,24.8a4.12,4.12,0,0,0,2.43.5,4.12,4.12,0,0,0,2.43-.5"/></g><g id="eyes"><line class="cls-17" x1="26.64" y1="22.99" x2="26.64" y2="24.47"/><line class="cls-18" x1="26.15" y1="23.67" x2="26.15" y2="24.49"/><line class="cls-17" x1="13.94" y1="22.99" x2="13.94" y2="24.47"/><line class="cls-18" x1="13.45" y1="23.67" x2="13.45" y2="24.49"/></g><g id="fronthair"><line class="cls-19" x1="5.2" y1="12.59" x2="5.2" y2="22.82"/><path class="cls-20" d="M7.81,10.56A26.65,26.65,0,0,0,17.45,10c5.61-1.25,7.66-3,7.66-3"/></g><g id="brows"><path class="cls-21" d="M29.78,17.51a5.86,5.86,0,0,0-3.22-.82,5.86,5.86,0,0,0-3.22.82"/><path class="cls-21" d="M17.08,17.51a5.86,5.86,0,0,0-3.22-.82,5.86,5.86,0,0,0-3.22.82"/></g></symbol></defs><title>graphisme</title><g id="icones"><use width="65.63" height="65" transform="translate(2.18 2.5)" xlink:href="#métier"/></g></svg>