<svg xmlns="http://www.w3.org/2000/svg" xmlns:xlink="http://www.w3.org/1999/xlink" viewBox="0 0 70 70"><defs><style>.cls-1{fill:none;}.cls-2,.cls-3{opacity:0.95;}.cls-2{fill:url(#linear-gradient);}.cls-3{fill:url(#linear-gradient-2);}.cls-4{fill:url(#linear-gradient-3);}.cls-5{opacity:0.1;mix-blend-mode:multiply;}.cls-6{fill:url(#linear-gradient-4);}.cls-7{fill:url(#linear-gradient-5);}</style><linearGradient id="linear-gradient" x1="0.5" y1="33" x2="63.5" y2="33" gradientUnits="userSpaceOnUse"><stop offset="0" stop-color="#58223a"/><stop offset="1" stop-color="#412734"/></linearGradient><linearGradient id="linear-gradient-2" x1="2.82" y1="3.94" x2="54.55" y2="55.67" xlink:href="#linear-gradient"/><linearGradient id="linear-gradient-3" x1="0.18" y1="1.83" x2="57.07" y2="57.42" gradientUnits="userSpaceOnUse"><stop offset="0" stop-color="#e955ab"/><stop offset="1" stop-color="#e33594"/></linearGradient><linearGradient id="linear-gradient-4" x1="17.1" y1="29.17" x2="40.06" y2="29.17" xlink:href="#linear-gradient-3"/><linearGradient id="linear-gradient-5" x1="17.1" y1="28.73" x2="40.05" y2="28.73" xlink:href="#linear-gradient-3"/><symbol id="indesign" data-name="indesign" viewBox="0 0 65 65"><rect class="cls-1" width="65" height="65"/><polygon class="cls-2" points="56.75 1.5 0.5 1.5 0.5 57.75 7.25 64.5 63.5 64.5 63.5 8.25 56.75 1.5"/><rect class="cls-3" x="2.74" y="4.03" width="51.9" height="51.55"/><path class="cls-4" d="M.5,1.5V57.75H56.75V1.5ZM52.28,53.29H5.09V6.08H52.28Z"/><g class="cls-5"><path d="M21.39,18v23.8H17.14V18Z"/></g><path class="cls-6" d="M21.39,17.27v23.8H17.14V17.27Z"/><g class="cls-5"><path d="M39.86,16.77V37c0,1.77.06,3.67.13,4.84H36.52l-.16-2.72H36.3a5.44,5.44,0,0,1-5,3.11c-3.66,0-6.57-3.5-6.57-8.79,0-5.76,3.19-9.18,6.88-9.18a4.74,4.74,0,0,1,4.33,2.26H36V16.77ZM36,31.81a6.86,6.86,0,0,0-.09-1.13,3.53,3.53,0,0,0-3.35-3.07c-2.49,0-3.89,2.47-3.89,5.69s1.39,5.44,3.85,5.44a3.54,3.54,0,0,0,3.35-3.07A5.4,5.4,0,0,0,36,34.39Z"/></g><path class="cls-7" d="M39.86,16V36.23c0,1.77.06,3.67.13,4.84H36.52l-.16-2.72H36.3a5.44,5.44,0,0,1-5,3.11c-3.66,0-6.57-3.5-6.57-8.79,0-5.76,3.19-9.18,6.88-9.18a4.74,4.74,0,0,1,4.33,2.26H36V16ZM36,31a6.86,6.86,0,0,0-.09-1.13,3.53,3.53,0,0,0-3.35-3.07c-2.49,0-3.89,2.47-3.89,5.69S30,38,32.51,38a3.54,3.54,0,0,0,3.35-3.07A5.4,5.4,0,0,0,36,33.62Z"/></symbol></defs><title>indesign</title><g id="icones"><use width="65" height="65" transform="translate(2.5 2.5)" xlink:href="#indesign"/></g></svg>