<?xml version="1.0" encoding="utf-8"?>
<!-- Generator: Adobe Illustrator 20.1.0, SVG Export Plug-In . SVG Version: 6.00 Build 0)  -->
<svg version="1.1" id="Calque_1" xmlns="http://www.w3.org/2000/svg" xmlns:xlink="http://www.w3.org/1999/xlink" x="0px" y="0px"
	 viewBox="0 0 350 350" style="enable-background:new 0 0 350 350;" xml:space="preserve">
<style type="text/css">
	.st0{fill:none;stroke:#211A13;stroke-width:200;stroke-linecap:round;stroke-linejoin:round;stroke-miterlimit:10;}
	.st1{fill:none;stroke:#E4B17A;stroke-width:200;stroke-linecap:round;stroke-linejoin:round;stroke-miterlimit:10;}
	.st2{fill:none;stroke:#E4B17A;stroke-width:50;stroke-linecap:round;stroke-linejoin:round;stroke-miterlimit:10;}
	.st3{fill:none;stroke:#E4B17A;stroke-width:150;stroke-linecap:round;stroke-linejoin:round;stroke-miterlimit:10;}
	.st4{fill:none;stroke:#D4145A;stroke-width:20;stroke-linecap:round;stroke-linejoin:round;stroke-miterlimit:10;}
	.st5{fill:none;stroke:#A4235C;stroke-width:10;stroke-linecap:round;stroke-linejoin:round;stroke-miterlimit:10;}
	.st6{display:none;}
	.st7{display:inline;fill:none;stroke:#F14B94;stroke-width:40;stroke-linecap:round;stroke-linejoin:round;stroke-miterlimit:10;}
	.st8{display:inline;fill:none;stroke:#E4B17A;stroke-width:50;stroke-linecap:round;stroke-linejoin:round;stroke-miterlimit:10;}
	.st9{display:inline;fill:none;stroke:#FFFFFF;stroke-width:15;stroke-linecap:round;stroke-linejoin:round;stroke-miterlimit:10;}
	.st10{display:inline;fill:none;stroke:#F14B94;stroke-width:60;stroke-linecap:round;stroke-linejoin:round;stroke-miterlimit:10;}
	.st11{display:inline;fill:none;stroke:#D4145A;stroke-width:20;stroke-linecap:round;stroke-linejoin:round;stroke-miterlimit:10;}
	.st12{fill:none;stroke:#211A13;stroke-width:20;stroke-linecap:round;stroke-linejoin:round;stroke-miterlimit:10;}
	.st13{display:inline;fill:none;stroke:#42210B;stroke-width:10;stroke-linecap:round;stroke-linejoin:round;stroke-miterlimit:10;}
	.st14{fill:none;stroke:#FFFFFF;stroke-width:40;stroke-linecap:round;stroke-linejoin:round;stroke-miterlimit:10;}
	.st15{fill:none;stroke:#000000;stroke-width:20;stroke-linecap:round;stroke-linejoin:round;stroke-miterlimit:10;}
	.st16{display:inline;fill:none;stroke:#FFFFFF;stroke-width:40;stroke-linecap:round;stroke-linejoin:round;stroke-miterlimit:10;}
	.st17{display:inline;fill:none;stroke:#000000;stroke-width:20;stroke-linecap:round;stroke-linejoin:round;stroke-miterlimit:10;}
	.st18{fill:none;stroke:#211A13;stroke-width:30;stroke-linecap:round;stroke-linejoin:round;stroke-miterlimit:10;}
	.st19{fill:none;stroke:#211A13;stroke-width:60;stroke-linecap:round;stroke-linejoin:round;stroke-miterlimit:10;}
</style>
<g>
	<g id="backhair">
		<line class="st0" x1="162" y1="135" x2="162" y2="155.5"/>
		<line class="st0" x1="181" y1="135" x2="181" y2="155.5"/>
	</g>
	<g id="face">
		<line class="st1" x1="174.5" y1="164" x2="174.5" y2="204.5"/>
		<line class="st2" x1="80.5" y1="192" x2="80.5" y2="217.5"/>
		<line id="jaw" class="st3" x1="149.2" y1="230.2" x2="211.8" y2="230.2"/>
	</g>
	<line id="moutho" class="st4" x1="181" y1="258" x2="181" y2="245"/>
	<g id="mouthm">
		<line class="st2" x1="153" y1="246" x2="208" y2="246"/>
		<path id="mouth" class="st5" d="M153,243c0,0,7,5.5,27.5,5.5S208,243,208,243"/>
	</g>
	<g id="mouthf" class="st6">
		<path class="st7" d="M154,254c0,0,10.3-2,23.5-2s23.5,2,23.5,2"/>
		<line class="st8" x1="140" y1="274" x2="217" y2="274"/>
		<line class="st9" x1="204.7" y1="243.8" x2="153" y2="243.8"/>
	</g>
	<g id="mouthi" class="st6">
		<path class="st7" d="M201,252c0,0-10.3,2-23.5,2s-23.5-2-23.5-2"/>
		<line class="st9" x1="204.7" y1="261" x2="153" y2="261"/>
		<line class="st9" x1="204.7" y1="243.8" x2="153" y2="243.8"/>
	</g>
	<g id="moutha" class="st6">
		<path class="st10" d="M207,257c0,0-9.3,4-26.5,4s-25.5-4-25.5-4"/>
		<line class="st11" x1="202" y1="276" x2="161" y2="276"/>
	</g>
	<g id="brows">
		<path class="st12" d="M236,137.5c0,0-7-5-19.5-5s-19.5,5-19.5,5"/>
		<path class="st12" d="M159,137.5c0,0-7-5-19.5-5s-19.5,5-19.5,5"/>
	</g>
	<g id="eyeshappy" class="st6">
		<line class="st8" x1="232" y1="187" x2="122" y2="187"/>
		<path id="eyeclosed_1_" class="st13" d="M151.8,187c0,0-3.7-3-14.7-3s-14.7,3-14.7,3"/>
		<path id="eyeclosed" class="st13" d="M228.5,187c0,0-3.7-3-14.7-3s-14.7,3-14.7,3"/>
	</g>
	<g id="eyesClosed_1_" class="st6">
		<line class="st8" x1="122" y1="184" x2="232" y2="184"/>
		<path id="eyeclosed_3_" class="st13" d="M202.2,184c0,0,3.7,3,14.7,3s14.7-3,14.7-3"/>
		<path id="eyeclosed_2_" class="st13" d="M125.5,184c0,0,3.7,3,14.7,3s14.7-3,14.7-3"/>
	</g>
	<g id="eyesClosed2" class="st6">
		<line class="st8" x1="232" y1="187" x2="122" y2="187"/>
		<path id="eyeclosed_7_" class="st13" d="M151.8,187c0,0-3.7-3-14.7-3s-14.7,3-14.7,3"/>
		<path id="eyeclosed_6_" class="st13" d="M228.5,187c0,0-3.7-3-14.7-3s-14.7,3-14.7,3"/>
	</g>
	<g id="eyes">
		<line class="st14" x1="217" y1="173" x2="217" y2="182"/>
		<line class="st15" x1="214" y1="177.1" x2="214" y2="182.1"/>
		<line class="st14" x1="140" y1="173" x2="140" y2="182"/>
		<line class="st15" x1="137" y1="177.1" x2="137" y2="182.1"/>
	</g>
	<g id="eyessemiclosed" class="st6">
		<line class="st8" x1="122" y1="176" x2="232" y2="176"/>
		<line class="st16" x1="217" y1="183.1" x2="217" y2="182.5"/>
		<line class="st17" x1="214" y1="177.1" x2="214" y2="182.1"/>
		<line class="st16" x1="140" y1="183.1" x2="140" y2="182.5"/>
		<line class="st17" x1="137" y1="177.1" x2="137" y2="182.1"/>
		<path id="eyeclosed_5_" class="st13" d="M159,171.2c0,0-4.7-3.5-18.3-3.5s-18.3,3.5-18.3,3.5"/>
		<path id="eyeclosed_4_" class="st13" d="M235,171.2c0,0-4.7-3.5-18.3-3.5c-13.7,0-18.3,3.5-18.3,3.5"/>
	</g>
	<g id="fronthair">
		<line class="st18" x1="87" y1="110" x2="87" y2="172"/>
		<path class="st19" d="M102.8,97.7c0,0,24.4,4.4,58.4-3.1c34-7.6,46.4-18.3,46.4-18.3"/>
	</g>
</g>
</svg>
