<svg xmlns="http://www.w3.org/2000/svg" xmlns:xlink="http://www.w3.org/1999/xlink" viewBox="0 0 70 70"><defs><style>.cls-1{fill:none;}.cls-2{fill:#10aa50;}.cls-3{fill:#b8c4c2;}.cls-4{fill:#12924f;}</style><symbol id="mongodb" data-name="mongodb" viewBox="0 0 65 65"><rect class="cls-1" width="65" height="65"/><path class="cls-2" d="M44.41,26.89C41.51,14.11,35.46,10.7,33.93,8.3A28,28,0,0,1,32.24,5,3.36,3.36,0,0,1,31,7.71c-1.94,1.73-10.17,8.44-10.86,23-.64,13.54,10,21.89,11.36,22.75a3.1,3.1,0,0,0,3-.47c5.11-3.51,12.09-12.86,9.83-26.06"/><path class="cls-3" d="M32.68,46.21a27.84,27.84,0,0,1-1.13,7.22s.45,3.19.76,6.57h1.1a61.54,61.54,0,0,1,1.21-7.08C33.18,52.22,32.74,49.15,32.68,46.21Z"/><path class="cls-4" d="M34.61,52.92h0c-1.45-.67-1.86-3.8-1.93-6.71A137.39,137.39,0,0,0,33,31.76c-.08-2.53,0-23.42-.62-26.48a25.31,25.31,0,0,0,1.56,3c1.54,2.41,7.58,5.81,10.48,18.59C46.66,40.06,39.72,49.39,34.61,52.92Z"/></symbol></defs><title>mongodb</title><g id="icones"><use width="65" height="65" transform="translate(2.5 2.5)" xlink:href="#mongodb"/></g></svg>