<svg xmlns="http://www.w3.org/2000/svg" xmlns:xlink="http://www.w3.org/1999/xlink" viewBox="0 0 70 70"><defs><style>.cls-1{fill:none;}.cls-2{fill:#1a1a1a;}.cls-3{fill:#22b573;}.cls-4{fill:#d4145a;}.cls-5{fill:#4d4d4d;}</style><symbol id="serveur" data-name="serveur" viewBox="0 0 56.55 56.55"><rect class="cls-1" width="56.55" height="56.55"/><path class="cls-2" d="M50.66,19.35H9a2.85,2.85,0,0,1-2.09-.88A2.86,2.86,0,0,1,6,16.38v-6a2.86,2.86,0,0,1,.88-2.09A2.86,2.86,0,0,1,9,7.45H50.66a3,3,0,0,1,3,3v6a3,3,0,0,1-3,3Zm0,14.88H9a2.85,2.85,0,0,1-2.09-.88A2.86,2.86,0,0,1,6,31.25v-6a2.86,2.86,0,0,1,.88-2.09A2.86,2.86,0,0,1,9,22.33H50.66a3,3,0,0,1,3,3v6a3,3,0,0,1-3,3Zm0,14.88H9a2.86,2.86,0,0,1-2.09-.88A2.86,2.86,0,0,1,6,46.13v-6a2.86,2.86,0,0,1,.88-2.09A2.86,2.86,0,0,1,9,37.2H50.66a3,3,0,0,1,3,3v6a3,3,0,0,1-3,3ZM41.82,11.82A2.24,2.24,0,0,0,38.66,15a2.24,2.24,0,0,0,3.16-3.16Zm0,14.88a2.24,2.24,0,1,0,.65,1.58A2.16,2.16,0,0,0,41.82,26.7Zm0,14.88a2.24,2.24,0,1,0,.65,1.58A2.16,2.16,0,0,0,41.82,41.57Zm6-29.75A2.24,2.24,0,0,0,44.61,15a2.24,2.24,0,0,0,3.16-3.16Zm0,14.88a2.24,2.24,0,1,0,.65,1.58A2.16,2.16,0,0,0,47.77,26.7Zm0,14.88a2.24,2.24,0,1,0,.65,1.58A2.16,2.16,0,0,0,47.77,41.57Z"/><rect class="cls-3" x="32.55" y="9.77" width="7.27" height="7.27"/><rect class="cls-3" x="34.91" y="24.47" width="13.52" height="7.7"/><rect class="cls-4" x="33.59" y="38.7" width="14.84" height="8.02"/><rect class="cls-4" x="40.4" y="8.33" width="7.17" height="9.67"/><path class="cls-5" d="M47.55,19.35H5.9a2.85,2.85,0,0,1-2.09-.88,2.86,2.86,0,0,1-.88-2.09v-6a2.86,2.86,0,0,1,.88-2.09A2.86,2.86,0,0,1,5.9,7.45H47.55a3,3,0,0,1,3,3v6a3,3,0,0,1-3,3Zm0,14.88H5.9a2.85,2.85,0,0,1-2.09-.88,2.86,2.86,0,0,1-.88-2.09v-6a2.86,2.86,0,0,1,.88-2.09,2.86,2.86,0,0,1,2.09-.88H47.55a3,3,0,0,1,3,3v6a3,3,0,0,1-3,3Zm0,14.88H5.9a2.86,2.86,0,0,1-2.09-.88,2.86,2.86,0,0,1-.88-2.09v-6a2.86,2.86,0,0,1,.88-2.09A2.86,2.86,0,0,1,5.9,37.2H47.55a3,3,0,0,1,3,3v6a3,3,0,0,1-3,3ZM38.72,11.82A2.24,2.24,0,0,0,35.56,15a2.24,2.24,0,0,0,3.16-3.16Zm0,14.88a2.24,2.24,0,1,0,.65,1.58A2.16,2.16,0,0,0,38.72,26.7Zm0,14.88a2.24,2.24,0,1,0,.65,1.58A2.16,2.16,0,0,0,38.72,41.57Zm6-29.75A2.24,2.24,0,0,0,41.51,15a2.24,2.24,0,0,0,3.16-3.16Zm0,14.88a2.24,2.24,0,1,0,.65,1.58A2.16,2.16,0,0,0,44.67,26.7Zm0,14.88a2.24,2.24,0,1,0,.65,1.58A2.16,2.16,0,0,0,44.67,41.57Z"/></symbol></defs><title>serveur</title><g id="icones"><use width="56.55" height="56.55" transform="translate(6.72 6.72)" xlink:href="#serveur"/></g></svg>