<svg xmlns="http://www.w3.org/2000/svg" xmlns:xlink="http://www.w3.org/1999/xlink" viewBox="0 0 70 70"><defs><style>.cls-1,.cls-10,.cls-11,.cls-12,.cls-2,.cls-3,.cls-4,.cls-5,.cls-6,.cls-7,.cls-8,.cls-9{fill:none;}.cls-2{stroke:#000;stroke-miterlimit:10;}.cls-2,.cls-7{stroke-width:2px;}.cls-11,.cls-12,.cls-3,.cls-8{stroke:#211a13;}.cls-10,.cls-11,.cls-12,.cls-3,.cls-4,.cls-5,.cls-6,.cls-7,.cls-8,.cls-9{stroke-linecap:round;stroke-linejoin:round;}.cls-3,.cls-4{stroke-width:26.72px;}.cls-4,.cls-5,.cls-6,.cls-9{stroke:#e4b17a;}.cls-5{stroke-width:6.68px;}.cls-6{stroke-width:20.04px;}.cls-7{stroke:#d4145a;}.cls-8{stroke-width:2.67px;}.cls-9{stroke-width:6px;}.cls-10{stroke:#42210b;stroke-width:1.34px;}.cls-11{stroke-width:4.01px;}.cls-12{stroke-width:8.02px;}</style><symbol id="UX" data-name="UX" viewBox="0 0 65 65"><rect class="cls-1" width="65" height="65"/><polygon class="cls-2" points="55.73 45.91 32.5 59.32 9.27 45.91 9.27 19.09 32.5 5.68 55.73 19.09 55.73 45.91"/><circle cx="32.5" cy="5.68" r="5.17"/><circle cx="32.5" cy="59.32" r="5.17"/><circle cx="9.51" cy="18.76" r="5.17"/><circle cx="9.51" cy="44.66" r="5.17"/><circle cx="55.73" cy="18.76" r="5.17"/><circle cx="55.73" cy="44.66" r="5.17"/><g id="backhair"><line class="cls-3" x1="30.89" y1="27.31" x2="30.89" y2="30.05"/><line class="cls-3" x1="33.43" y1="27.31" x2="33.43" y2="30.05"/></g><g id="face"><line class="cls-4" x1="32.56" y1="31.19" x2="32.56" y2="36.6"/><line class="cls-5" x1="20" y1="34.93" x2="20" y2="38.34"/><line id="jaw" class="cls-6" x1="29.19" y1="40.04" x2="37.54" y2="40.04"/></g><line id="moutho" class="cls-7" x1="33.39" y1="43.5" x2="33.39" y2="41.5"/><g id="brows"><path class="cls-8" d="M40.78,27.81a5.41,5.41,0,0,0-5.21,0"/><path class="cls-8" d="M30.49,27.81a4.75,4.75,0,0,0-2.61-.67,4.75,4.75,0,0,0-2.61.67"/></g><g id="eyeshappy"><line class="cls-9" x1="39.39" y1="34.5" x2="24.39" y2="34.5"/><path id="eyeclosed" class="cls-10" d="M29.52,34.26a3.33,3.33,0,0,0-2-.41,3.33,3.33,0,0,0-2,.41"/><path id="eyeclosed-2" data-name="eyeclosed" class="cls-10" d="M39.77,34.26a3.33,3.33,0,0,0-2-.41,3.33,3.33,0,0,0-2,.41"/></g><g id="eyesClosed"><line class="cls-9" x1="24.39" y1="34.5" x2="39.39" y2="34.5"/><path id="eyeclosed-3" data-name="eyeclosed" class="cls-10" d="M36.27,33.86a3.33,3.33,0,0,0,2,.41,3.33,3.33,0,0,0,2-.41"/><path id="eyeclosed-4" data-name="eyeclosed" class="cls-10" d="M26,33.86a3.33,3.33,0,0,0,2,.41,3.33,3.33,0,0,0,2-.41"/></g><g id="fronthair"><line class="cls-11" x1="20.87" y1="23.97" x2="20.87" y2="32.26"/><path class="cls-12" d="M23,22.33a21.58,21.58,0,0,0,7.8-.42c4.54-1,6.2-2.45,6.2-2.45"/></g></symbol></defs><title>ux</title><g id="icones"><use width="65" height="65" transform="translate(2.5 2.5)" xlink:href="#UX"/></g></svg>